<?xml version="1.0" encoding="UTF-8" standalone="no"?>
<!DOCTYPE svg PUBLIC "-//W3C//DTD SVG 1.1//EN" "http://www.w3.org/Graphics/SVG/1.1/DTD/svg11.dtd">
<svg width="100%" height="100%" viewBox="0 0 522 482" version="1.1" xmlns="http://www.w3.org/2000/svg" xmlns:xlink="http://www.w3.org/1999/xlink" xml:space="preserve" xmlns:serif="http://www.serif.com/" style="fill-rule:evenodd;clip-rule:evenodd;stroke-linejoin:round;stroke-miterlimit:2;">
    <g transform="matrix(0.645337,0,0,0.597243,62.0193,9)">
        <path d="M656.693,776.134L398.955,776.134L398.955,774.028L657.075,774.028L656.693,776.134Z" style="fill:rgb(63,61,86);fill-rule:nonzero;"/>
    </g>
    <g transform="matrix(0.645337,0,0,0.597243,62.0193,9)">
        <rect x="489.831" y="734.872" width="14" height="30" style="fill:rgb(251,190,190);"/>
    </g>
    <g transform="matrix(0.645337,0,0,0.597243,62.0193,9)">
        <rect x="598.831" y="735.872" width="14" height="30" style="fill:rgb(251,190,190);"/>
    </g>
    <g transform="matrix(0.645337,0,0,0.597243,-113.166,-26.2044)">
        <path d="M885.794,809.317L868.794,807.317L824.794,604.317L776.794,808.317L759.794,806.317C756.989,714.01 765.187,621.667 772.294,544.817L873.794,536.317C892.918,612.045 893.702,706.292 885.794,809.317Z" style="fill:rgb(47,46,65);fill-rule:nonzero;"/>
    </g>
    <g transform="matrix(0.645337,0,0,0.597243,-113.166,-26.2044)">
        <path d="M875.238,548.327C875.238,548.327 851.597,572.996 864.959,579.163C878.322,585.33 886.544,551.411 886.544,551.411L875.238,548.327Z" style="fill:rgb(251,190,190);fill-rule:nonzero;"/>
    </g>
    <g transform="matrix(0.645337,0,0,0.597243,-113.166,-26.2044)">
        <path d="M754.238,550.327C754.238,550.327 730.597,574.996 743.959,581.163C757.322,587.33 765.544,553.411 765.544,553.411L754.238,550.327Z" style="fill:rgb(251,190,190);fill-rule:nonzero;"/>
    </g>
    <g transform="matrix(0.645337,0,0,0.597243,62.0193,9)">
        <circle cx="554.831" cy="284.872" r="28" style="fill:rgb(251,190,190);"/>
    </g>
    <g transform="matrix(0.645337,0,0,0.597243,-113.166,-26.2044)">
        <path d="M858.794,402.317L808.794,407.317C813.415,386.512 814.536,367.074 808.794,350.317L843.794,350.317C841.892,364.28 848.999,382.642 858.794,402.317Z" style="fill:rgb(251,190,190);fill-rule:nonzero;"/>
    </g>
    <g transform="matrix(0.645337,0,0,0.597243,-113.166,-26.2044)">
        <path d="M872.794,547.317C854.111,569.79 814.85,562.277 769.794,546.317C782.579,504.584 780.597,460.554 769.108,415.046C767.82,410.017 770.368,404.741 775.107,402.622L811.794,386.317L825.794,389.317L849.794,383.317L883.862,390.285C889.561,391.452 893.595,396.66 893.301,402.47C890.452,458.327 885.411,510.02 872.794,547.317Z" style="fill:rgb(230,230,230);fill-rule:nonzero;"/>
    </g>
    <g transform="matrix(0.645337,0,0,0.597243,-113.166,-26.2044)">
        <path d="M882.794,565.317L873.794,550.317L890.794,486.317L881.794,390.317C893.674,391.505 903.487,400.299 905.965,411.979L919.618,476.346C921.676,486.047 920.44,496.163 916.108,505.083L882.794,565.317Z" style="fill:rgb(230,230,230);fill-rule:nonzero;"/>
    </g>
    <g transform="matrix(0.645337,0,0,0.597243,-113.166,-26.2044)">
        <path d="M765.794,554.317L745.294,557.817L758.366,429.853C758.625,416.824 766.694,405.157 778.794,400.317L785.294,484.817L765.794,554.317Z" style="fill:rgb(230,230,230);fill-rule:nonzero;"/>
    </g>
    <g transform="matrix(0.645337,0,0,0.597243,-113.166,-26.2044)">
        <path d="M769.97,834.301L732.237,840.928C730.525,841.229 728.76,840.992 727.188,840.249C724.25,838.862 722.368,835.891 722.368,832.641C722.368,830.298 723.347,828.057 725.067,826.466L741.232,811.51L745.446,804.146C747.85,799.819 752.261,796.966 757.193,796.546C764.399,796.046 766.778,801.53 765.271,811.828C770.744,815.854 771.609,815.236 775.294,809.817L776.966,826.793C776.575,830.567 773.707,833.645 769.97,834.301Z" style="fill:rgb(47,46,65);fill-rule:nonzero;"/>
    </g>
    <g transform="matrix(0.645337,0,0,0.597243,-113.166,-26.2044)">
        <path d="M878.97,834.301L841.237,840.928C839.525,841.229 837.76,840.992 836.188,840.249C833.25,838.862 831.368,835.891 831.368,832.641C831.368,830.298 832.347,828.057 834.067,826.466L850.232,811.51L854.446,804.146C856.85,799.819 861.261,796.966 866.193,796.546C873.399,796.046 875.778,801.53 874.271,811.828C879.744,815.854 880.609,815.236 884.294,809.817L885.966,826.793C885.575,830.567 882.707,833.645 878.97,834.301Z" style="fill:rgb(47,46,65);fill-rule:nonzero;"/>
    </g>
    <g transform="matrix(0.645337,0,0,0.597243,-113.166,-26.2044)">
        <path d="M804.063,327.863C816.684,320.643 829.322,325.256 841.981,344.958L844.57,365.945C863.57,347.945 862.609,323.381 841.302,313.39C839.207,312.407 837.177,311.29 834.898,311.685C825.598,306.694 813.87,309.845 808.324,318.824C804.387,319.506 798.744,327.327 798.947,331.317L804.063,327.863Z" style="fill:rgb(47,46,65);fill-rule:nonzero;"/>
    </g>
    <g transform="matrix(0.645337,0,0,0.597243,62.0193,9)">
        <ellipse cx="569.331" cy="286.372" rx="3.5" ry="4.5" style="fill:rgb(251,190,190);"/>
    </g>
    <g transform="matrix(0.645337,0,0,0.597243,62.0193,9)">
        <path d="M151.405,500L209.672,500C209.672,512.617 199.289,523 186.672,523L174.405,523C161.787,523 151.405,512.617 151.405,500Z" style="fill:rgb(63,61,86);fill-rule:nonzero;"/>
    </g>
    <g transform="matrix(0.645337,0,0,0.597243,-113.166,-26.2044)">
        <path d="M494.748,507.45L494.748,486.076C494.748,460.25 522.837,435.821 541.058,418.393C566.742,393.84 580.243,360.853 580.243,322.211C580.243,251.859 522.352,193.968 452,193.968C381.917,193.968 324.149,251.416 323.758,321.497C323.758,321.735 323.758,321.973 323.758,322.211C323.758,359.472 337.838,394.695 362.943,418.393C381.067,435.501 409.253,459.982 409.253,486.076L409.253,507.45" style="fill:rgb(108,99,255);fill-rule:nonzero;"/>
    </g>
    <g transform="matrix(0.645337,0,0,0.597243,-113.166,-26.2044)">
        <path d="M494.749,510.45L494.748,510.45C493.103,510.45 491.748,509.096 491.748,507.45L491.748,486.076C491.748,460.951 516.528,437.496 534.621,420.37C536.122,418.948 537.582,417.566 538.984,416.225C564.014,392.298 577.243,359.788 577.243,322.211C577.243,251.982 522.23,196.968 452.001,196.968C451.883,196.968 451.765,196.968 451.647,196.968C383.297,197.045 327.027,253.156 326.758,321.506L326.758,322.205C326.758,359.006 340.698,393.268 365.003,416.211C366.234,417.375 367.513,418.572 368.826,419.8C387.153,436.96 412.253,460.459 412.253,486.076L412.253,507.45C412.253,509.095 410.899,510.45 409.253,510.45C407.608,510.45 406.253,509.095 406.253,507.45L406.253,486.076C406.253,463.061 382.251,440.589 364.725,424.18C363.406,422.946 362.121,421.743 360.884,420.575C335.384,396.503 320.758,360.65 320.758,322.211L320.758,321.491C320.959,249.446 379.643,190.968 451.639,190.968C451.766,190.968 451.882,190.968 452.009,190.968C452.235,190.967 452.461,190.967 452.688,190.967C524.309,190.967 583.245,249.902 583.245,321.524C583.245,321.753 583.244,321.982 583.243,322.211C583.243,361.466 569.372,395.475 543.131,420.562C541.722,421.909 540.255,423.298 538.745,424.727C521.444,441.104 497.748,463.533 497.748,486.076L497.748,507.45C497.748,509.096 496.394,510.45 494.749,510.45Z" style="fill:rgb(63,61,86);fill-rule:nonzero;"/>
    </g>
    <g transform="matrix(0.645337,0,0,0.597243,-113.166,-26.2044)">
        <path d="M480.499,548.945L423.502,548.945C420.759,548.945 418.502,546.688 418.502,543.945C418.502,541.202 420.759,538.945 423.502,538.945L480.499,538.945C483.242,538.945 485.499,541.202 485.499,543.945C485.499,546.688 483.242,548.945 480.499,548.945Z" style="fill:rgb(108,99,255);fill-rule:nonzero;"/>
    </g>
    <g transform="matrix(0.645337,0,0,0.597243,-113.166,-26.2044)">
        <path d="M319.399,204.351C318.191,204.352 317.022,203.913 316.113,203.117L273.174,165.636C272.085,164.687 271.459,163.311 271.459,161.866C271.459,159.123 273.716,156.866 276.459,156.866C277.669,156.866 278.839,157.306 279.75,158.103L322.689,195.584C323.776,196.533 324.401,197.908 324.401,199.351C324.401,202.094 322.144,204.351 319.401,204.351L319.399,204.351Z" style="fill:rgb(230,230,230);fill-rule:nonzero;"/>
    </g>
    <g transform="matrix(0.645337,0,0,0.597243,-113.166,-26.2044)">
        <path d="M577.478,204.351C577.477,204.351 577.477,204.351 577.476,204.351C574.733,204.351 572.476,202.094 572.476,199.351C572.476,197.908 573.101,196.533 574.188,195.584L617.126,158.103C618.037,157.31 619.204,156.872 620.411,156.872C623.154,156.872 625.411,159.129 625.411,161.872C625.411,163.314 624.788,164.687 623.703,165.636L580.764,203.117C579.855,203.913 578.686,204.352 577.478,204.351Z" style="fill:rgb(230,230,230);fill-rule:nonzero;"/>
    </g>
    <g transform="matrix(0.645337,0,0,0.597243,-113.166,-26.2044)">
        <path d="M494.748,531.198L409.253,531.198C406.51,531.198 404.253,528.941 404.253,526.198C404.253,523.455 406.51,521.198 409.253,521.198L494.748,521.198C497.491,521.198 499.748,523.455 499.748,526.198C499.748,528.941 497.491,531.198 494.748,531.198Z" style="fill:rgb(108,99,255);fill-rule:nonzero;"/>
    </g>
    <g transform="matrix(0.645337,0,0,0.597243,-113.166,-26.2044)">
        <path d="M452.001,512.45L452.001,512.45C449.258,512.45 447.001,510.193 447.001,507.45L447.001,393.457C447.001,390.714 449.258,388.457 452.001,388.457C454.744,388.457 457.001,390.714 457.001,393.457L457.001,507.45C457.001,510.193 454.744,512.45 452.001,512.45Z" style="fill:white;fill-rule:nonzero;"/>
    </g>
    <g transform="matrix(0.645337,0,0,0.597243,-113.166,-26.2044)">
        <path d="M452.001,398.457C435.846,398.457 416.011,383.841 415.175,383.219C413.907,382.277 413.159,380.787 413.159,379.208C413.159,376.465 415.416,374.208 418.159,374.208C419.234,374.208 420.281,374.554 421.143,375.196C426.113,378.883 441.349,388.457 452.001,388.457C462.653,388.457 477.889,378.883 482.861,375.194C483.723,374.553 484.769,374.207 485.844,374.207C488.587,374.207 490.844,376.464 490.844,379.207C490.844,380.787 490.095,382.277 488.827,383.219C487.991,383.841 468.156,398.457 452.001,398.457Z" style="fill:white;fill-rule:nonzero;"/>
    </g>
    <g transform="matrix(0.645337,0,0,0.597243,-113.166,-26.2044)">
        <path d="M452,154.44C449.257,154.44 447,152.183 447,149.44L447,63.945C447,61.202 449.257,58.945 452,58.945C454.743,58.945 457,61.202 457,63.945L457,149.44C457,152.183 454.743,154.44 452,154.44Z" style="fill:rgb(230,230,230);fill-rule:nonzero;"/>
    </g>
</svg>
